<svg width="302" height="81" viewBox="0 0 302 81" fill="none" xmlns="http://www.w3.org/2000/svg">
<path d="M41.3816 76.9401C18.2177 76.9322 2.73975 60.4948 2.73975 40.5649C2.73975 20.635 18.253 4.00899 41.3463 4.06007H259.575C282.669 4.00899 298.182 20.635 298.182 40.5649C298.182 60.4948 282.704 76.9322 259.54 76.9401H41.3816ZM41.4522 13.0252C23.1141 13.0606 11.8578 25.3336 11.8578 40.5178C11.8578 55.698 23.0435 68.0732 41.4522 68.0064H259.469C277.878 68.0692 289.068 55.698 289.068 40.5178C289.068 25.3375 277.812 13.0645 259.473 13.0291L41.4522 13.0252ZM271.197 25.8404C272.864 25.8404 273.692 26.4061 273.692 27.5258C273.692 28.2958 273.213 28.8772 272.417 29.0776L273.723 31.6901H272.142L271.024 29.2937H270.33V31.6901H268.905V25.8404H271.197ZM271.067 23.5539C268.156 23.5539 265.794 25.919 265.794 28.834C265.794 31.7491 268.156 34.1141 271.067 34.1141C273.978 34.1141 276.34 31.7491 276.34 28.834C276.34 25.919 273.978 23.5539 271.067 23.5539ZM275.332 28.8379C275.332 31.1951 273.421 33.1084 271.067 33.1084C268.713 33.1084 266.802 31.1951 266.802 28.8379C266.802 26.4808 268.713 24.5675 271.067 24.5675C273.421 24.5675 275.332 26.4768 275.332 28.8379ZM270.33 28.4372H271.024C271.836 28.4372 272.229 28.1897 272.229 27.6083C272.229 26.9993 271.809 26.7361 270.953 26.7361H270.33V28.4372ZM151.151 42.7335C151.136 40.7338 151.179 39.3981 151.834 38.2588C152.638 36.8523 154.118 36.1845 155.459 36.1766H155.455C156.797 36.1845 158.276 36.8523 159.081 38.2588C159.736 39.402 159.763 40.7378 159.748 42.7374L151.151 42.7335ZM159.712 49.6125C159.712 49.6125 159.72 49.7147 159.72 50.9954C159.72 55.1676 156.978 56.0948 155.455 56.0948C153.933 56.0948 151.144 55.1676 151.144 50.9954C151.144 49.7461 151.151 46.285 151.151 46.285C151.151 46.285 170.561 46.2928 170.561 46.2809C170.561 39.2055 163.738 33.344 155.357 33.344C146.977 33.344 140.185 39.0798 140.185 46.1552C140.185 53.2307 146.977 58.9626 155.357 58.9626C162.31 58.9626 168.183 54.9907 169.976 49.6046L159.712 49.6125ZM192.132 33.7251C195.984 33.6151 203.8 36.1412 203.745 45.1732C203.737 46.776 203.741 57.5876 203.741 57.5876H193.505C193.505 57.5876 193.505 44.0299 193.505 42.6039C193.505 40.616 191.606 38.4041 188.797 38.4041C185.991 38.4041 183.904 40.616 183.904 42.6039C183.904 43.5782 183.916 57.5876 183.916 57.5876H173.687L173.695 34.7741L183.92 34.7662C183.92 34.7662 183.908 36.6009 183.92 37.1666C185.889 35.2848 188.73 33.8234 192.132 33.7251ZM108.398 33.7251C112.251 33.6151 120.066 36.1412 120.011 45.1732C120.003 46.776 120.007 57.5876 120.007 57.5876H109.771C109.771 57.5876 109.771 44.0299 109.771 42.6039C109.771 40.616 107.872 38.4041 105.063 38.4041C102.257 38.4041 100.17 40.616 100.17 42.6039C100.17 43.5782 100.182 57.5876 100.182 57.5876H89.9536L89.9496 34.7741L100.186 34.7662C100.186 34.7662 100.174 36.6009 100.186 37.1666C102.155 35.2848 104.992 33.8234 108.398 33.7251ZM225.952 23.2868H236.121V57.5955H225.936C225.936 57.5955 225.932 56.4876 225.932 56.2755C221.989 58.7545 217.54 58.7505 214.075 57.1319C213.145 56.6998 207.029 53.7611 207.029 45.8214C207.029 39.7988 212.702 33.2223 220.129 33.8744C222.573 34.0905 224.312 34.9823 225.959 35.9095C225.952 30.6294 225.952 23.2868 225.952 23.2868ZM226.026 46.0728C226.026 46.0728 226.026 43.2128 226.026 41.9949C226.026 38.467 223.594 37.5674 221.993 37.5674C220.353 37.5674 217.952 38.467 217.952 41.9949C217.952 43.1656 217.956 46.0611 217.956 46.0611C217.956 46.0611 217.952 48.9054 217.952 50.1193C217.952 53.6433 220.353 54.5665 221.989 54.5665C223.594 54.5665 226.03 53.6433 226.03 50.1193C226.03 48.6539 226.026 46.0728 226.026 46.0728ZM258.673 46.006C258.673 46.006 258.669 49.4554 258.669 50.8383C258.669 54.4762 256.523 55.9769 254.459 55.9769C252.392 55.9769 250.238 54.4762 250.238 50.8383C250.238 49.4554 250.242 45.9196 250.242 45.9196C250.242 45.9196 250.249 42.5449 250.249 41.1621C250.249 37.5399 252.407 36.0509 254.459 36.0509C256.515 36.0509 258.669 37.5399 258.669 41.1621C258.669 42.5449 258.665 45.1024 258.677 46.0178L258.673 46.006ZM254.534 33.2223C246.216 33.2223 239.476 38.9581 239.476 46.0336C239.476 53.109 246.22 58.8448 254.534 58.8448C262.851 58.8448 269.592 53.109 269.592 46.0336C269.592 38.9581 262.851 33.2223 254.534 33.2223ZM73.95 30.2915V23.2789H84.2765V30.2915H73.95ZM73.9736 57.5955V34.778L84.2765 34.7821V57.5956L73.9736 57.5955ZM125.665 57.5955L125.669 34.8252H120.066V31.4387L125.673 31.4346L125.665 26.8146H135.976V31.4307H141.555V34.8251H135.976L135.984 57.5954L125.665 57.5955ZM32.0439 57.5955L32.0478 23.2868H42.7234L57.4912 47.2121L57.4834 23.2868H68.0767V57.5955H57.4991L42.6528 33.6702V57.5955H32.0439Z" fill="white"/>
</svg>
